<svg xmlns="http://www.w3.org/2000/svg" xmlns:xlink="http://www.w3.org/1999/xlink" width="130" height="47" viewBox="0 0 130 47">
    <defs>
        <path id="prefix__a" d="M0 45.638L129.579 45.638 129.579 0.452 0 0.452z"/>
    </defs>
    <g fill="none" fill-rule="evenodd">
        <path fill="#000" d="M14.508 10.738L14.508 20.846 4.7 20.846 4.7 10.738 0 10.738 0 35.354 4.7 35.354 4.7 24.822 14.508 24.822 14.508 35.354 19.209 35.354 19.209 10.738z"/>
        <g transform="translate(0 .009)">
            <path fill="#000" d="M27.737 24.054h7.245V23.4c0-1.013-.342-1.838-1.027-2.474-.685-.636-1.553-.954-2.604-.954-1.04 0-1.902.318-2.586.954-.686.636-1.028 1.46-1.028 2.474v.654zm-4.7 2.032c0-1.449.2-2.766.599-3.95.4-1.184.962-2.197 1.686-3.04a7.41 7.41 0 012.622-1.952c1.024-.459 2.16-.689 3.407-.689 1.25 0 2.385.224 3.405.671a7.792 7.792 0 012.618 1.847c.726.784 1.28 1.717 1.663 2.801.384 1.084.575 2.256.575 3.516v2.28H27.737v1.22c0 1.107.363 1.964 1.09 2.571.725.607 1.585.91 2.577.91s1.8-.259 2.427-.778c.625-.518.998-1.248 1.116-2.19h4.524c-.295 2.049-1.16 3.642-2.593 4.78-1.432 1.136-3.274 1.704-5.527 1.704-1.306 0-2.474-.236-3.505-.707a7.36 7.36 0 01-2.612-1.979c-.712-.848-1.256-1.867-1.633-3.057-.376-1.19-.564-2.51-.564-3.958z"/>
            <mask id="prefix__b" fill="#fff">
                <use xlink:href="#prefix__a"/>
            </mask>
            <path fill="#000" d="M43.509 35.345L48.033 35.345 48.033 10.729 43.509 10.729zM51.857 35.346h4.524v-18.45h-4.524v18.45zm-.07-20.588h4.665V10.73h-4.665v4.03zM64.644 28.79c0 1.107.375 1.964 1.125 2.57.75.608 1.691.91 2.825.91 1.133 0 2.075-.294 2.825-.882.75-.59 1.125-1.456 1.125-2.598v-5.354c0-1.132-.376-1.991-1.125-2.58-.75-.59-1.692-.884-2.825-.884-1.134 0-2.076.3-2.825.9-.75.602-1.125 1.456-1.125 2.564v5.354zm-4.7-2.669c0-1.45.194-2.765.582-3.949.388-1.184.95-2.204 1.687-3.057a7.326 7.326 0 012.71-1.971c1.07-.46 2.294-.69 3.67-.69 1.381 0 2.607.23 3.68.69a7.356 7.356 0 012.716 1.97c.737.854 1.297 1.874 1.68 3.058.384 1.184.575 2.5.575 3.95 0 1.448-.191 2.762-.575 3.94-.383 1.178-.943 2.197-1.68 3.057a7.32 7.32 0 01-2.715 1.98c-1.074.459-2.3.688-3.68.688-1.377 0-2.6-.23-3.671-.688a7.291 7.291 0 01-2.71-1.98c-.736-.86-1.299-1.879-1.687-3.057-.388-1.178-.582-2.492-.582-3.94zM80.28 29.479h4.524c.189 1.861 1.302 2.792 3.34 2.792.872 0 1.614-.162 2.227-.486.613-.323.92-.838.92-1.545 0-.67-.255-1.155-.761-1.456-.507-.3-1.173-.538-1.998-.715l-3.179-.692c-3.087-.672-4.63-2.434-4.63-5.285 0-.801.162-1.543.486-2.227a5.184 5.184 0 011.404-1.785c.613-.506 1.361-.904 2.245-1.192.884-.288 1.89-.433 3.02-.433 2.098 0 3.818.507 5.161 1.52 1.343 1.013 2.061 2.544 2.156 4.594h-4.524c-.047-.871-.324-1.522-.83-1.952-.507-.43-1.16-.645-1.962-.645-.777 0-1.41.176-1.9.528-.488.353-.733.844-.733 1.476 0 .63.181 1.097.543 1.4.36.303.835.522 1.42.658l3.661.784c.678.137 1.324.34 1.937.607a5.37 5.37 0 011.58 1.033c.44.42.788.922 1.042 1.502.256.582.385 1.27.385 2.066 0 .802-.171 1.55-.513 2.245a5.336 5.336 0 01-1.484 1.82c-.648.519-1.449.93-2.404 1.237-.954.306-2.043.46-3.268.46-2.463 0-4.365-.545-5.709-1.635-1.343-1.09-2.061-2.648-2.155-4.674" mask="url(#prefix__b)"/>
            <path fill="#00F" d="M107.224 10.682L101.834 10.682 108.713 21.46 111.408 17.249zM117.657 35.409L123.047 35.409 116.146 24.597 113.45 28.807zM112.429 27.239L100.648 45.638 95.257 45.638 109.734 23.027 112.43 18.817 124.188.453 129.579.453 115.125 23.028" mask="url(#prefix__b)"/>
        </g>
    </g>
</svg>
